<?xml version="1.0" standalone="no"?>
<!DOCTYPE svg PUBLIC "-//W3C//DTD SVG 20010904//EN"
 "http://www.w3.org/TR/2001/REC-SVG-20010904/DTD/svg10.dtd">
<svg version="1.0" xmlns="http://www.w3.org/2000/svg"
 width="260.000000pt" height="260.000000pt" viewBox="0 0 260.000000 260.000000"
 preserveAspectRatio="xMidYMid meet">
<metadata>
Created by potrace 1.11, written by Peter Selinger 2001-2013
</metadata>
<g transform="translate(0.000000,260.000000) scale(0.100000,-0.100000)"
fill="#000000" stroke="none">
<path d="M4 1821 c-2 -2 -4 -142 -4 -310 0 -200 3 -302 10 -295 6 6 11 126 12
299 l3 290 260 1 c293 2 285 1 285 12 0 8 -558 11 -566 3z"/>
<path d="M199 1627 c-1 -1 -3 -163 -3 -359 l-2 -358 43 0 43 0 2 280 3 280 59
-107 c33 -60 83 -150 113 -201 29 -51 53 -96 53 -101 0 -14 46 -51 63 -51 14
0 67 57 67 72 0 7 199 371 208 380 4 4 7 -119 7 -272 l-1 -280 43 0 43 0 0
359 0 359 -44 0 c-25 0 -49 -5 -55 -12 -5 -6 -47 -79 -92 -161 -45 -83 -98
-177 -116 -210 -19 -33 -40 -72 -46 -87 -6 -16 -14 -28 -17 -28 -3 0 -21 30
-40 68 -68 128 -232 417 -242 423 -9 6 -87 11 -89 6z"/>
<path d="M1200 1269 l0 -360 168 2 c186 2 242 14 315 67 197 142 176 495 -35
603 -72 37 -98 41 -275 45 l-173 3 0 -360z m332 270 c111 -24 181 -122 185
-259 3 -105 -21 -172 -81 -227 -57 -52 -114 -66 -245 -61 l-94 3 1 250 c0 138
1 262 1 277 l1 27 93 0 c50 0 113 -5 139 -10z"/>
<path d="M1919 1626 c-7 -6 -3 -69 5 -74 6 -4 58 -7 116 -7 l105 0 3 -318 2
-318 48 3 47 3 1 305 c1 168 2 310 3 315 1 7 42 11 114 10 l112 0 0 40 0 40
-277 1 c-153 0 -278 0 -279 0z"/>
<path d="M2578 1064 l-3 -299 -272 0 c-185 1 -273 -3 -273 -10 0 -7 91 -10
283 -10 l282 0 3 299 c1 190 -1 303 -8 310 -6 6 -11 -90 -12 -290z"/>
</g>
</svg>
